<svg xmlns="http://www.w3.org/2000/svg" xmlns:svg="http://www.w3.org/2000/svg" id="svg3336" width="1536" height="1536" version="1.1" viewBox="0 0 1536 1536"><metadata id="metadata3344"/><path id="path3338" d="m 1280,800 0,-480 q 0,-26 -19,-45 -19,-19 -45,-19 l -480,0 q -42,0 -59,39 -17,41 14,70 l 144,144 -534,534 q -19,19 -19,45 0,26 19,45 l 102,102 q 19,19 45,19 26,0 45,-19 l 534,-534 144,144 q 18,19 45,19 12,0 25,-5 39,-17 39,-59 z m 256,-512 0,960 q 0,119 -84.5,203.5 Q 1367,1536 1248,1536 l -960,0 Q 169,1536 84.5,1451.5 0,1367 0,1248 L 0,288 Q 0,169 84.5,84.5 169,0 288,0 l 960,0 Q 1367,0 1451.5,84.5 1536,169 1536,288 Z"/></svg>